<svg width="28" height="32" viewBox="0 0 28 32" fill="none" xmlns="http://www.w3.org/2000/svg">
<path d="M22.7368 16.9087C22.6911 12.9392 26.2045 11.0228 26.3413 10.9316C24.3794 8.23954 21.2767 7.87453 20.2273 7.8289C17.6721 7.55513 15.1626 9.28897 13.8394 9.28897C12.5162 9.28897 10.463 7.87452 8.31852 7.92015C5.53525 7.96578 2.88886 9.47149 1.47441 11.8441C-1.49137 16.635 0.698751 23.7072 3.57328 27.5856C4.98772 29.5019 6.63031 31.6008 8.82042 31.5551C10.9649 31.4639 11.7406 30.2776 14.2957 30.2776C16.8508 30.2776 17.5809 31.5551 19.8166 31.5095C22.098 31.4639 23.5581 29.5932 24.9269 27.6768C26.5695 25.4867 27.2083 23.3422 27.2539 23.251C27.1626 23.2053 22.7824 21.654 22.7368 16.9087ZM18.5391 5.31939C19.6797 3.9962 20.4554 2.1711 20.2273 0.300381C18.5847 0.346008 16.4858 1.34981 15.2995 2.673C14.2501 3.81369 13.2919 5.73004 13.5657 7.5095C15.4364 7.64639 17.3527 6.59696 18.5391 5.31939Z" fill="#2F3E1D"/>
</svg>
